<svg xmlns="http://www.w3.org/2000/svg" width="32.986" height="32.605" viewBox="0 0 32.986 32.605">
  <path id="facebook_4_" data-name="facebook (4)" d="M4.832,32.6H15.591V21.015H11.726V17.194h3.866V12.418a4.81,4.81,0,0,1,4.832-4.776h4.832v3.821H21.39a1.924,1.924,0,0,0-1.933,1.91v3.821h5.624l-.644,3.821h-4.98V32.6h8.7a4.81,4.81,0,0,0,4.832-4.776V4.776A4.81,4.81,0,0,0,28.154,0H4.832A4.81,4.81,0,0,0,0,4.776V27.829A4.81,4.81,0,0,0,4.832,32.6ZM1.933,4.776a2.886,2.886,0,0,1,2.9-2.866H28.154a2.886,2.886,0,0,1,2.9,2.866V27.829a2.886,2.886,0,0,1-2.9,2.866H21.39V22.925h4.684l1.289-7.642H21.39v-1.91h5.8V5.731H20.423a6.734,6.734,0,0,0-6.765,6.687v2.866H9.793v7.642h3.866v7.769H4.832a2.886,2.886,0,0,1-2.9-2.866Zm0,0" fill="#ffffff"/>
</svg>
