<svg xmlns="http://www.w3.org/2000/svg" width="33" height="33" viewBox="0 0 33 33">
  <g id="Group_69" data-name="Group 69" transform="translate(-238 -4464.629)">
    <path id="Path_17" data-name="Path 17" d="M4.834,33H28.166A4.839,4.839,0,0,0,33,28.166V4.834A4.839,4.839,0,0,0,28.166,0H4.834A4.839,4.839,0,0,0,0,4.834V28.166A4.839,4.839,0,0,0,4.834,33ZM1.934,4.834a2.9,2.9,0,0,1,2.9-2.9H28.166a2.9,2.9,0,0,1,2.9,2.9V28.166a2.9,2.9,0,0,1-2.9,2.9H4.834a2.9,2.9,0,0,1-2.9-2.9Zm0,0" transform="translate(238 4464.629)" fill="#ffffff"/>
    <path id="Path_18" data-name="Path 18" d="M128.5,136a7.5,7.5,0,1,0-7.5-7.5A7.509,7.509,0,0,0,128.5,136Zm0-13.333a5.833,5.833,0,1,1-5.833,5.833A5.84,5.84,0,0,1,128.5,122.667Zm0,0" transform="translate(126 4352.229)" fill="#d9d9d9"/>
    <path id="Path_19" data-name="Path 19" d="M363.5,66a2.5,2.5,0,1,0-2.5-2.5A2.5,2.5,0,0,0,363.5,66Zm0-3.333a.833.833,0,1,1-.833.833A.834.834,0,0,1,363.5,62.667Zm0,0" transform="translate(-99 4407.629)" fill="#d9d9d9"/>
  </g>
</svg>
