<svg xmlns="http://www.w3.org/2000/svg" width="203.234" height="96.145" viewBox="0 0 203.234 96.145">
  <g id="Group_56" data-name="Group 56" transform="translate(-138.756 -47.856)">
    <g id="თილისმა_ლოგო" data-name="თილისმა ლოგო" transform="translate(138.061 47.217)">
      <path id="Path_20" data-name="Path 20" d="M101.747,49.741a5.924,5.924,0,0,0-2.483-1.8,8.889,8.889,0,0,0-3.232-.641,7.059,7.059,0,0,0-.937,0,22.921,22.921,0,0,1-5.19-.077,11.962,11.962,0,0,1-2.473-.613,6.207,6.207,0,0,1-1.134-.546,3.41,3.41,0,0,1-.852-.67.794.794,0,0,1-.206-.488.842.842,0,0,1,.225-.527,3.368,3.368,0,0,1,.89-.67A24.351,24.351,0,0,1,88.7,42.541c.834-.373,1.677-.718,2.529-1.072s1.611-.67,2.389-1.072a8.908,8.908,0,0,0,3.672-3.1,4.535,4.535,0,0,0,.665-2.413,5.616,5.616,0,0,0-.675-2.422,6.5,6.5,0,0,0-1.415-1.867,3.878,3.878,0,0,0-2.07-.957,6.821,6.821,0,0,0-4.618,1.637,5.274,5.274,0,0,1-2.052,1.273,5.225,5.225,0,0,1-1.34,0,3.834,3.834,0,0,0-1.321.086,6.614,6.614,0,0,0-2.07,1.187c-.562.4-1.527.957-2.136.364a1.51,1.51,0,0,1-.393-.957,16.412,16.412,0,0,0,.665-4.672,8.041,8.041,0,0,0-1.077-4.1,6.057,6.057,0,0,0-2.923-2.365,9.607,9.607,0,0,0-2.211-.546,8.765,8.765,0,0,0-2.3,0,4.859,4.859,0,0,0-2.211.785,4.039,4.039,0,0,0-1.368,1.8,3.979,3.979,0,0,0-1.19-1.666,4.467,4.467,0,0,0-1.874-.833,7.686,7.686,0,0,0-2.3-.144,10.337,10.337,0,0,0-2.22.421,6.242,6.242,0,0,0-3.138,2.135,7.3,7.3,0,0,0-1.34,3.925,15.634,15.634,0,0,0,.637,5.256,1.252,1.252,0,0,1-.843,1.2,2.265,2.265,0,0,1-1.63-.584A8.645,8.645,0,0,0,52.968,32.8a4.2,4.2,0,0,0-2.07-.249,4.987,4.987,0,0,1-1.134,0,2.335,2.335,0,0,1-.937-.412c-.3-.211-.571-.46-.862-.689a10.305,10.305,0,0,0-.871-.613,6.274,6.274,0,0,0-3.944-1.206,4.3,4.3,0,0,0-2.97,1.915,5.826,5.826,0,0,0-1.237,3.762C39.131,38.185,42,39.88,44.3,40.895c1.433.632,2.876,1.206,4.3,1.848A19.815,19.815,0,0,1,50.654,43.8c.478.3,1.312.862.843,1.522a2.649,2.649,0,0,1-.693.6,5.494,5.494,0,0,1-.89.507,9.714,9.714,0,0,1-1.93.632,18.582,18.582,0,0,1-4.684.354c-.759,0-1.518-.105-2.286-.105a9.256,9.256,0,0,0-1.986.191,7.118,7.118,0,0,0-3.476,1.762,3.518,3.518,0,0,0-.937,1.57,2.379,2.379,0,0,0,.29,1.819,4.562,4.562,0,0,0,1.283,1.273c.534.383,1.087.756,1.639,1.091A13.48,13.48,0,0,0,41.988,56.7a24.048,24.048,0,0,0,4.684.536,76.373,76.373,0,0,0,9.471-.393l2.248-.23a7.488,7.488,0,0,1,2,.364,4.744,4.744,0,0,1,1.34.661,2.408,2.408,0,0,1,.871,1.178,2.872,2.872,0,0,1-.112,1.857,6.5,6.5,0,0,1-2.314,2.872,24.547,24.547,0,0,1-3.3,1.972c-.675.354-1.349.708-2,1.1a4.5,4.5,0,0,0-1.6,1.407,15.265,15.265,0,0,0-2.136,2.719,4.867,4.867,0,0,0-.8,3.188,4.289,4.289,0,0,0,1.527,2.422,8.385,8.385,0,0,0,2.81,1.618c1.255.46,2.586.68,3.85,1.1A36.412,36.412,0,0,1,58.72,83.8c-.515.23-.562.957-.525,1.426s.1,1.13.646,1.369c-.1,2.489-.141,4.988-.15,7.487s0,5.007.131,7.515a57.007,57.007,0,0,0,.665,7.372c.215,1.206.487,2.4.74,3.6a11.189,11.189,0,0,0,.937,3.159,3.034,3.034,0,0,0,.974,1.024,4.09,4.09,0,0,0,1.386.565,16.271,16.271,0,0,0,3.344.278h.937a1.023,1.023,0,0,0,.675-.507,1.042,1.042,0,0,0,.684.507,26.537,26.537,0,0,0,3.494-.172,4.218,4.218,0,0,0,2.7-1.178,6.608,6.608,0,0,0,1.152-2.872c.272-1.187.515-2.393.759-3.59a49.858,49.858,0,0,0,.787-7.362c.122-2.489.159-4.988.159-7.477,0-2.2,0-4.4-.084-6.606h0V86.6a.954.954,0,0,0,.562-.737h0a3.547,3.547,0,0,0,.094-.632c0-.469,0-1.13-.459-1.388h-.066a34.456,34.456,0,0,1,.178-4.729c1.143-.383,2.333-.594,3.476-.957a9.3,9.3,0,0,0,2.81-1.493,4.7,4.7,0,0,0,1.761-2.355,4.417,4.417,0,0,0-.562-3.217,14.057,14.057,0,0,0-2.3-3.016,4.023,4.023,0,0,0-1.312-1.216,12.47,12.47,0,0,0-1.742-.957,34.4,34.4,0,0,1-3.363-1.915,7.889,7.889,0,0,1-2.473-2.5,2.924,2.924,0,0,1-.075-3.255,3.581,3.581,0,0,1,1.677-1.1,7.352,7.352,0,0,1,2.183-.421c2.483.258,4.984.469,7.494.574a40.221,40.221,0,0,0,7.438-.22,15.441,15.441,0,0,0,3.522-.871,14.832,14.832,0,0,0,3.12-1.714,6.071,6.071,0,0,0,2.08-1.915,2.532,2.532,0,0,0-.347-2.709M89.091,33.647a4.589,4.589,0,0,1,3.532-1.7,3.323,3.323,0,0,1,3,1.991c1.04,2.537-1.752,5.649-4.319,4.787a2.666,2.666,0,0,1-1.874-2.642,3.178,3.178,0,0,1,2.483-2.671,2.607,2.607,0,0,1,1.874,0,1.632,1.632,0,0,1,.693,1.551c0,1.2-.937,2.671-2.23,2.585a1.487,1.487,0,0,1-1.321-1.082,1.639,1.639,0,0,1,.787-1.608c.422-.335,1.124-.661,1.536-.124s-.094,1.206-.571,1.541-.693-.345-.337-.594c.112-.077.553-.364.3-.546-.1-.067-.45.211-.534.268-.365.278-.74.737-.365,1.178.749.881,1.78-.335,1.986-1.063a1.748,1.748,0,0,0-.084-1.321c-.29-.421-.937-.287-1.4-.191a2.724,2.724,0,0,0-2,1.532c-.731,1.819,1.424,3.006,2.913,2.451s2.67-2.958,1.461-4.413c-1.405-1.7-3.813-.852-5.049.565C89.306,34.471,88.8,33.982,89.091,33.647Zm-40.17.881c-1.237-1.417-3.644-2.269-5.049-.565-1.208,1.455-.169,3.829,1.461,4.413,1.49.555,3.644-.632,2.913-2.46a2.74,2.74,0,0,0-2.033-1.493c-.431-.1-1.105-.22-1.4.2a1.738,1.738,0,0,0-.084,1.321c.206.718,1.237,1.915,1.986,1.063.375-.44,0-.9-.365-1.178-.084-.067-.431-.345-.534-.268-.253.182.187.469.3.546.356.249,0,.852-.337.594s-1.021-.957-.571-1.541,1.115-.211,1.536.115a1.658,1.658,0,0,1,.787,1.618,1.5,1.5,0,0,1-1.321,1.044c-1.33.086-2.211-1.388-2.23-2.594a1.632,1.632,0,0,1,.693-1.541,2.561,2.561,0,0,1,1.874,0,3.177,3.177,0,0,1,2.473,2.633,2.656,2.656,0,0,1-1.874,2.633c-2.557.91-5.349-2.212-4.309-4.787a3.3,3.3,0,0,1,3-1.991A4.545,4.545,0,0,1,49.4,34.04c.29.326-.187.823-.478.488ZM46.11,54.461a2.956,2.956,0,0,1-1.742.747,4.137,4.137,0,0,1-3.672-3.37,2.616,2.616,0,0,1,1.771-2.4,2.632,2.632,0,0,1,2.946.245,2.772,2.772,0,0,1,.933,2.866c-.29,1.082-1.611,1.312-2.529,1.053s-2.117-1.235-1.677-2.288a1.789,1.789,0,0,1,1.188-.823,1.76,1.76,0,0,1,1.4.334.865.865,0,0,1,.075,1.206,1.233,1.233,0,0,1-1.208.153c-.422-.105-.234-.775.187-.661.112,0,.412.124.525,0,.253-.22-.45-.364-.581-.364-.412,0-1.03.1-.937.641.112.756,1.134,1.187,1.8,1.178a1.17,1.17,0,0,0,1.049-.479,1.534,1.534,0,0,0,0-1.044,1.908,1.908,0,0,0-1.18-1.551c-1.143-.373-3.035.364-3.082,1.752a2.466,2.466,0,0,0,1.03,1.972,3.14,3.14,0,0,0,2.061.852A3.353,3.353,0,0,0,46.335,53.3a2.518,2.518,0,0,0,.815-2.164c-.084-.44.571-.622.656-.182.281,1.455-.656,2.614-1.733,3.5Zm9.293.2a4.216,4.216,0,0,1-4.328-1.369,2.861,2.861,0,0,1,.234-3.638,3.41,3.41,0,0,1,3.822-.632,2.726,2.726,0,0,1,.806,3.705,2.564,2.564,0,0,1-3.541-.115,1.38,1.38,0,0,1-.309-1.742,2.163,2.163,0,0,1,1.8-.823,1.123,1.123,0,0,1,1,1.206.957.957,0,0,1-.47.681.919.919,0,0,1-.814.047c-.4-.163-.225-.833.178-.67s.553-.354.169-.536a.921.921,0,0,0-.881.172c-.3.172-.6.373-.468.766a1.418,1.418,0,0,0,.553.651,1.99,1.99,0,0,0,1.312.326,1.746,1.746,0,0,0,.806-.287.889.889,0,0,0,.365-.862,1.909,1.909,0,0,0-1.527-2.078,2.706,2.706,0,0,0-2.595,1.015,2.152,2.152,0,0,0,.15,2.556,3.7,3.7,0,0,0,2.979,1.072,2.406,2.406,0,0,0,2.173-1.915,4.593,4.593,0,0,0-.834-3.245,3.315,3.315,0,0,0-5.415.957c-.244.364-.834,0-.59-.354a5.369,5.369,0,0,1,1.8-1.915,3.8,3.8,0,0,1,2.576-.287,3.558,3.558,0,0,1,2.258,1.264,5.583,5.583,0,0,1,.881,2.556,3.106,3.106,0,0,1-2.127,3.494Zm-.075-13.288c-1.33.412-3.026.393-3.747-.957s.187-2.5,1.424-2.968c1.087-.4,2.979-.3,3.391,1.072a1.409,1.409,0,0,1-.684,1.561,3.215,3.215,0,0,1-2.052.258.873.873,0,0,1-.8-.37.917.917,0,0,1-.089-.894c.262-.7.993-.785,1.63-.775a.345.345,0,0,1,0,.689c-.262,0-.853-.057-.937.268s.422.373.646.383c.543,0,1.358,0,1.574-.641s-.628-.957-1.1-1.091a2.609,2.609,0,0,0-1.546.2c-.937.393-1.49,1.264-.768,2.164s1.986.718,2.942.412,2.014-.957,1.742-2.164a2.648,2.648,0,0,0-2.192-1.857,3.744,3.744,0,0,0-3.1.517,2.421,2.421,0,0,0-.881,2.527c.487,2.145,2.81,2.872,4.684,2.556.422-.067.609.6.178.661a5.113,5.113,0,0,1-4.609-1.292,3.582,3.582,0,0,1-.581-4.136,3.921,3.921,0,0,1,4.019-1.58,3.474,3.474,0,0,1,3.138,2.489c.328,1.532-.974,2.547-2.323,2.968Zm10.9-8.138c.112-.306.234-.6.356-.9.262-.613.553-1.216.843-1.819s.693-1.359,1.049-2.039c.59,1.158,1.162,2.336,1.724,3.552a7.943,7.943,0,0,1,.675,1.915,1.525,1.525,0,0,1-.665,1.426,5.007,5.007,0,0,1-1.742.957h-.056a5.681,5.681,0,0,1-1.564-.766,1.746,1.746,0,0,1-.853-1.35,2.566,2.566,0,0,1,.2-.977Zm-7.082,7.707c-.693-1.417.262-2.872,1.321-3.724a3.537,3.537,0,0,1,3.925-.555,3.579,3.579,0,0,1,1.874,2.719,2.437,2.437,0,0,1-1.808,2.594,3.68,3.68,0,0,1-3.335-.479,2.3,2.3,0,0,1-.328-3.016,2.222,2.222,0,0,1,2.81-.862,1.817,1.817,0,0,1,.934,1.1,1.864,1.864,0,0,1-.147,1.448,1.49,1.49,0,0,1-1.137.8,1.472,1.472,0,0,1-1.289-.5,1.189,1.189,0,0,1-.047-1.35,1.23,1.23,0,0,1,1.312-.421c.431.086.244.747-.178.67-.675-.124-.881.67-.253.89a.844.844,0,0,0,.937-.383,1.21,1.21,0,0,0,.025-1.165,1.16,1.16,0,0,0-.962-.626,1.621,1.621,0,0,0-1.709,1.16,1.671,1.671,0,0,0,.772,1.942c1.218.594,3.663.258,3.682-1.494a2.9,2.9,0,0,0-.98-2.036,2.77,2.77,0,0,0-2.12-.673c-1.386.144-3.588,2.01-2.81,3.59.253.421-.3.766-.525.373Zm-3.56,33.69a3.186,3.186,0,0,1-1.1-1.4,1.864,1.864,0,0,1-.15-.957,1.939,1.939,0,0,1,.337-.881,5.6,5.6,0,0,1,1.4-1.4,12.8,12.8,0,0,1,2.108-1.273,9.142,9.142,0,0,1,1.077,3.2,3.327,3.327,0,0,1-.319,2.575,1.972,1.972,0,0,1-1.518.785A3.252,3.252,0,0,1,55.581,74.632Zm2.81,2.633a1.182,1.182,0,0,1-.262-.68.28.28,0,0,1,.1-.249.379.379,0,0,1,.431-.115,16.71,16.71,0,0,0,1.8-.383c.646-.172,1.274-.45,1.93-.584a1.727,1.727,0,0,1,2.089.862,1.635,1.635,0,0,1-1.246,2,10.611,10.611,0,0,1-3.813.172.333.333,0,0,1-.215-.077.318.318,0,0,1-.178-.115,6.07,6.07,0,0,1-.637-.823Zm1.433,8.616a.787.787,0,0,1,0-1.561h17.3a.787.787,0,0,1,0,1.561H59.778Zm9.93,18.248c0,4.787-.759,5.907-1.274,6.165a1.635,1.635,0,0,1-.684-.957,8.567,8.567,0,0,1-.356-1.446,23.581,23.581,0,0,1-.234-3.447c0-1.158,0-2.326,0-3.485V97.485a10.525,10.525,0,0,1,.066-1.79,1.255,1.255,0,0,1,.721-1.091l.44-.144.45.144c1.124.373.824,2.432.824,9.535ZM77.7,72.459a10.16,10.16,0,0,1,1.152-3.686,11.554,11.554,0,0,1,2.529,1.618,2.887,2.887,0,0,1,1.265,2.326A2.941,2.941,0,0,1,81.3,74.757a2.578,2.578,0,0,1-2.548.431,2.445,2.445,0,0,1-1.1-2.719Zm-3.251,2.8c.646.134,1.274.412,1.874.584a16.876,16.876,0,0,0,1.808.383.37.37,0,0,1,.422.115.309.309,0,0,1,.112.249,1.191,1.191,0,0,1-.272.68,6.071,6.071,0,0,1-.637.833.29.29,0,0,1-.178.115.314.314,0,0,1-.215.077,10.639,10.639,0,0,1-3.813-.172,1.658,1.658,0,0,1-1.246-2,1.736,1.736,0,0,1,2.1-.852Zm.937-19.923a8.209,8.209,0,0,1-3.607,2.681,10.23,10.23,0,0,1-4.937.68,4.947,4.947,0,0,1-2.3-.881,12.4,12.4,0,0,0-1.874-1.235h-.1l-.234-.134a.43.43,0,0,1-.2-.134c-3.176-1.915-2.492-7.085-1.63-10.139a3.481,3.481,0,0,1,1.171-2.01,5.363,5.363,0,0,1,2.342-.785,19.1,19.1,0,0,1,5.715.268c1.733.258,3.579.4,4.9,1.733A7.749,7.749,0,0,1,76.5,50.047a7.148,7.148,0,0,1-1.18,5.294ZM77.54,41.325c-.2.393-.778.048-.581-.354.778-1.589-1.424-3.447-2.81-3.59a2.77,2.77,0,0,0-2.117.67,2.9,2.9,0,0,0-.984,2.03c0,1.762,2.464,2.1,3.682,1.5a1.671,1.671,0,0,0,.772-1.942,1.621,1.621,0,0,0-1.709-1.16,1.17,1.17,0,0,0-.954.63,1.22,1.22,0,0,0,.017,1.161.863.863,0,0,0,.984.383c.628-.23.422-1.015-.253-.89-.422.077-.609-.594-.178-.67a1.221,1.221,0,0,1,1.3.412,1.189,1.189,0,0,1,0,1.359,1.472,1.472,0,0,1-1.289.5,1.49,1.49,0,0,1-1.137-.8,1.854,1.854,0,0,1-.146-1.47,1.805,1.805,0,0,1,.97-1.1,2.269,2.269,0,0,1,2.728.91,2.385,2.385,0,0,1-.273,2.919,3.68,3.68,0,0,1-3.335.479,2.447,2.447,0,0,1-1.808-2.594A3.579,3.579,0,0,1,72.294,37a3.537,3.537,0,0,1,3.925.555c.984.957,1.949,2.365,1.255,3.782Zm3.035-3.581a3.46,3.46,0,0,1,3.138-2.489,3.921,3.921,0,0,1,4.019,1.58,3.562,3.562,0,0,1-.581,4.136,5.113,5.113,0,0,1-4.609,1.292c-.431-.057-.244-.728.178-.661,1.874.287,4.206-.412,4.684-2.556a2.42,2.42,0,0,0-.909-2.518,3.735,3.735,0,0,0-3.1-.517A2.666,2.666,0,0,0,81.2,37.869c-.262,1.216.768,1.848,1.742,2.164s2.23.479,2.942-.412.15-1.771-.768-2.164a2.571,2.571,0,0,0-1.564-.163c-.468.1-1.3.479-1.1,1.091s1.03.651,1.564.641c.225,0,.806,0,.646-.383s-.712-.268-.937-.268a.345.345,0,0,1,0-.689c.637,0,1.368.077,1.63.766a.975.975,0,0,1-.117.8.934.934,0,0,1-.679.422,3.224,3.224,0,0,1-2.052-.258,1.409,1.409,0,0,1-.7-1.6c.422-1.369,2.314-1.474,3.391-1.072,1.246.469,2.155,1.637,1.424,2.977s-2.454,1.407-3.747.957-2.679-1.3-2.37-2.93ZM86.44,49.884a3.315,3.315,0,0,0-5.415-.957,4.6,4.6,0,0,0-.843,3.245,2.434,2.434,0,0,0,2.183,1.915,3.7,3.7,0,0,0,3-1.12,2.152,2.152,0,0,0,.15-2.556,2.715,2.715,0,0,0-2.6-1.015,1.909,1.909,0,0,0-1.518,2.078.879.879,0,0,0,.365.862,1.746,1.746,0,0,0,.806.287,1.99,1.99,0,0,0,1.312-.326,1.4,1.4,0,0,0,.543-.651c.131-.393-.159-.594-.459-.766a.976.976,0,0,0-.937-.172c-.384.182-.262.708.178.536s.581.507.178.67a.919.919,0,0,1-.814-.047.957.957,0,0,1-.47-.681,1.123,1.123,0,0,1,.993-1.206,2.145,2.145,0,0,1,1.8.823,1.369,1.369,0,0,1-.319,1.809,2.563,2.563,0,0,1-3.5.163,2.726,2.726,0,0,1,.806-3.705,3.4,3.4,0,0,1,3.813.632,2.851,2.851,0,0,1,.244,3.638A4.216,4.216,0,0,1,81.6,54.71a3.114,3.114,0,0,1-2.155-3.475,5.705,5.705,0,0,1,.937-2.556,3.54,3.54,0,0,1,2.258-1.264,3.8,3.8,0,0,1,2.576.287A5.266,5.266,0,0,1,87,49.616c.206.3-.384.641-.628.278ZM97.129,51.7a4.2,4.2,0,0,1-3.7,3.37,2.993,2.993,0,0,1-1.742-.747c-1.059-.852-2.024-2.049-1.733-3.514.084-.431.731-.249.646.182a2.517,2.517,0,0,0,.853,2.192,3.325,3.325,0,0,0,1.874,1.178,3.063,3.063,0,0,0,2.023-.795,2.456,2.456,0,0,0,1.04-1.963c-.056-1.4-1.939-2.125-3.091-1.762a1.907,1.907,0,0,0-1.18,1.513,1.534,1.534,0,0,0,0,1.044,1.235,1.235,0,0,0,1.059.479c.665,0,1.677-.421,1.8-1.187.075-.546-.534-.661-.937-.641-.131,0-.834.144-.581.373s.422,0,.534,0a.337.337,0,0,1,.379.249.347.347,0,0,1-.2.412,1.214,1.214,0,0,1-1.2-.144.855.855,0,0,1,.084-1.245,1.76,1.76,0,0,1,1.4-.338,1.788,1.788,0,0,1,1.19.817c.44,1.053-.815,2.039-1.668,2.288s-2.248,0-2.529-1.053a2.753,2.753,0,0,1,.92-2.873,3.042,3.042,0,0,1,4.7,2.174Z" transform="translate(-33.852 -20.82)" fill="#ff4600"/>
      <path id="Path_21" data-name="Path 21" d="M75.519,50.346a14.584,14.584,0,0,0-1.66,0c-.291,0-.291-.446,0-.472a14.575,14.575,0,0,1,1.66,0,.2.2,0,0,1,.125.043,9.547,9.547,0,0,0-.291-1.063.161.161,0,0,1-.141,0,12.736,12.736,0,0,0-2.681.06c-.291.043-.291-.429,0-.463a12.189,12.189,0,0,1,2.715.009,4.286,4.286,0,0,0-1.287-1.86c-1.063-.857-2.607-.909-3.9-1.106L69.4,45.4a3.541,3.541,0,0,1,0,.789,12.676,12.676,0,0,0,.324,2.16,20.642,20.642,0,0,1,.83,2.486,2.025,2.025,0,0,1-.483,1.755,1.883,1.883,0,0,1-1.667.6,2.408,2.408,0,0,1-1.66-1.174,2.525,2.525,0,0,1,0-2.066c.465-1.234,1.66-2.392,1.876-3.729l-.05-.609a.4.4,0,0,1,.058-.249V45.3a12.238,12.238,0,0,0-2.856,0,3.839,3.839,0,0,0-2.125.754A3.2,3.2,0,0,0,62.9,47.6a6.264,6.264,0,0,1,2.432.489c.266.111.149.566-.125.454a5.958,5.958,0,0,0-2.407-.48h0c-.075.351-.149.737-.216,1.157a12.9,12.9,0,0,1,1.984.223c.282,0,.166.489-.125.446-.631-.094-1.27-.163-1.909-.206h0c-.282,2.135-.183,4.741,1.66,5.744a1.363,1.363,0,0,1,.506.086,2.912,2.912,0,0,0,1.154,0,7.354,7.354,0,0,1,6.832.96A6.19,6.19,0,0,0,74.9,54.538a5.889,5.889,0,0,0,.83-4.286.181.181,0,0,1-.174.086" transform="translate(-34.53 -21.45)" fill="#ff4600"/>
      <path id="Path_22" data-name="Path 22" d="M66.82,57.72h0a.67.67,0,0,1,.18.16c.66.89,2.1,1.08,3.13,1.1a7,7,0,0,0,3.34-.78,8.61,8.61,0,0,0-6.64-.49" transform="translate(-35.804 -23.097)" fill="#ff4600"/>
      <path id="Path_23" data-name="Path 23" d="M69.33,52.36c0,.47.34.76.75.5h.1V52.8l.11-.15a.38.38,0,0,1,.14-.09,2.22,2.22,0,0,0,0-.63A8.45,8.45,0,0,0,70,50.57a7.76,7.76,0,0,0-.45.86,2.75,2.75,0,0,0-.26.93" transform="translate(-35.53 -22.45)" fill="#ff4600"/>
    </g>
    <path id="Logo_site_3_" data-name="Logo site (3)" d="M167.154,173.65a1.089,1.089,0,0,1-.631.153h-7.668c.927,0,1.862.5,1.862,1.134v9.984a.4.4,0,0,1-.238.392,1.089,1.089,0,0,1-.631.153h-4.576c-.467,0-.869-.24-.869-.545V174.449a.593.593,0,0,0-.3-.5,1.676,1.676,0,0,0-.7-.174h-4.822a1.089,1.089,0,0,1-.64-.124.4.4,0,0,1-.238-.392v-1.112c0-1.068,1.263-1.875,2.895-1.875h15.9c.566,0,.869.2.869.567v2.42a.4.4,0,0,1-.238.392Zm9.3,11.728a.9.9,0,0,1-.6.153H171.14c-.492,0-.82-.218-.82-.545V172.2c0-1.068,1.263-1.9,2.9-1.9h2.616a.9.9,0,0,1,.6.153.447.447,0,0,1,.238.392v14.1a.447.447,0,0,1-.238.392Zm21.06.087H182.138c-.4,0-.82-.283-.82-.545v-12.8c0-.807.763-1.417,1.821-1.744a4.46,4.46,0,0,1,1.066-.131h2.559a.9.9,0,0,1,.6.153.452.452,0,0,1,.23.392v10.572a.713.713,0,0,0,.271.414.982.982,0,0,0,.73.262h8.931c.467,0,.861.24.861.545v2.311c0,.305-.394.545-.861.545Zm9.8-.087a.9.9,0,0,1-.6.153H202c-.5,0-.82-.218-.82-.545V172.2c0-1.068,1.255-1.9,2.887-1.9h2.657a.9.9,0,0,1,.6.153.452.452,0,0,1,.23.392v14.1a.452.452,0,0,1-.23.392ZM229.458,174.8h-4.617a1.538,1.538,0,0,1-1.132-.392,1.291,1.291,0,0,0-.459-.523,3.667,3.667,0,0,0-.763-.327c-.3-.065-.631-.131-.935-.174a6.192,6.192,0,0,0-.894-.044c-1.329,0-2.928.218-2.928,1.264,0,.414.336.763,1,1a20.783,20.783,0,0,0,3.682.727c4.256.436,8.537,1.33,8.537,4.578,0,3.553-5.511,4.8-10.063,4.8-3.084,0-6.872-.48-8.865-2.223a3.028,3.028,0,0,1-1.23-2.18.383.383,0,0,1,.2-.327,1.226,1.226,0,0,1,.533-.131h4.388a1.5,1.5,0,0,1,1.189.392,2.944,2.944,0,0,0,1.64.937,8.539,8.539,0,0,0,2.157.262,11.272,11.272,0,0,0,1.132-.065,5.086,5.086,0,0,0,1.2-.2c.763-.174,1.361-.523,1.361-1.09a.948.948,0,0,0-.7-.85,11.694,11.694,0,0,0-1.394-.414c-1.033-.2-2.067-.349-3.125-.523-4.1-.523-7.971-1.526-7.971-4.621,0-3.335,4.921-4.621,9.267-4.621,3.084,0,6.339.676,8.3,2.311a2.919,2.919,0,0,1,1.2,1.94.484.484,0,0,1-.2.349.9.9,0,0,1-.5.131Zm27.006,10.725h-4.191c-.492,0-.82-.218-.82-.545v-7.462q0-.131-.2-.131l-3.387,3.967a1.438,1.438,0,0,1-1.165.5h-1.763a1.622,1.622,0,0,1-1.156-.5l-3.223-3.9-.336,7.5a.4.4,0,0,1-.23.392,1.107,1.107,0,0,1-.631.153h-4.15a1.051,1.051,0,0,1-.6-.153.448.448,0,0,1-.271-.392V172.116c0-.894,1.329-1.809,2.723-1.809h1.862a1.368,1.368,0,0,1,1.2.48l5.544,6.54,5.88-6.54a1.377,1.377,0,0,1,1.2-.48h3.723c.426,0,.82.283.82.567v14.082c0,.305-.4.545-.82.545Zm25.973,0h-4.289a1.185,1.185,0,0,1-1.124-.48l-1.73-3.074a36.89,36.89,0,0,1-8.669.959h-1.165a1.556,1.556,0,0,1,.9.392.7.7,0,0,1,.066.894l-.467.828a1.2,1.2,0,0,1-1.132.48h-4.281a1.07,1.07,0,0,1-.5-.131.445.445,0,0,1-.2-.327v-.2l7.7-13.907a1.428,1.428,0,0,1,1.329-.632h5.15a1.419,1.419,0,0,1,1.328.632l7.709,13.907v.2c0,.24-.336.458-.7.458Zm-10.965-11.379-2.985,5.668a21.121,21.121,0,0,0,5.544-.872Z" transform="translate(58.922 -89.958)" fill="#fff"/>
    <g id="ტილისმა" transform="translate(219.179 99.996)">
      <path id="Path_25" data-name="Path 25" d="M226.07,309.05l-2.62-1.23a43.384,43.384,0,0,1-5.27-2.55c-3.57-2.32-4-6.65-1.22-9.84a4.82,4.82,0,0,1,7.12-.57l.64.5c3.31-2.33,3.89-2.33,7,0,1.88-1.41,3.86-2.73,6.27-1.17,1.44.94,2,3.52,1.46,5.61-.44,1.56-1.12,2.32-2.38,2.47,0-.36.06-.69.07-1,0-1.27.11-2.54,0-3.81a1.52,1.52,0,0,0-1.53-1.66,2.34,2.34,0,0,0-2.42,1.56,14.19,14.19,0,0,1-.26,1.88,3.68,3.68,0,0,1-1.24,1.71c-.29.19-1.11-.18-1.52-.51a1.59,1.59,0,0,1-.41-2.06c.64-1.38.4-2.13-.79-2.58a2.24,2.24,0,0,0-2.79,1.55,7.769,7.769,0,0,0-.18,1.67,1.86,1.86,0,0,1-1.4,2,2.12,2.12,0,0,1-1.53-.65,1.6,1.6,0,0,1-.13-2.28c.58-.74.32-1.18-.28-1.68a2.61,2.61,0,0,0-4.26.61,4.608,4.608,0,0,0,1.66,6.93c2,1.06,4,1.91,6.05,2.89a8,8,0,0,1,1.82,1.14c1.16,1,1,2.14-.38,2.85a10.81,10.81,0,0,1-6.56.78,19.553,19.553,0,0,1-4-1.13c-.38-.14-.56-.8-.82-1.22a3.32,3.32,0,0,1,1.29-.19,14.65,14.65,0,0,0,8.61-.02Z" transform="translate(-183.34 -283.78)" fill="#ff4600"/>
      <path id="Path_26" data-name="Path 26" d="M278.63,294.67a66.49,66.49,0,0,0-.59-6.94,2.15,2.15,0,0,0-3.75-1.17,2.4,2.4,0,0,1,.5,3.37,2.18,2.18,0,0,1-1.49.92,1.9,1.9,0,0,1-1.32-.94c-1.4-2.62.66-5.9,3.77-6.12a4.74,4.74,0,0,1,5.27,4.54,80.753,80.753,0,0,1-.48,9.06c-.47,4.51-6.13,6.59-9.89,3.49a4.77,4.77,0,0,1-2-3.42,3.93,3.93,0,0,1,3.83-4.09,8,8,0,0,1,5.68,1.39Zm-4.22.85h-1a2.12,2.12,0,0,0-2.14,1.6,1.93,1.93,0,0,0,1.2,2.36,7.831,7.831,0,0,0,3,.53,2.66,2.66,0,0,0,2.24-2.2c-.06-1.19-1-1.69-1.93-2a9.069,9.069,0,0,0-1.37-.29Z" transform="translate(-183.34 -283.78)" fill="#ff4600"/>
      <path id="Path_27" data-name="Path 27" d="M262.43,293.6a22.994,22.994,0,0,1,2.53.86,3.17,3.17,0,0,1,1.37,5,6.87,6.87,0,0,1-7.5,2.64,6.48,6.48,0,0,1-4.14-7.18c.15-1.15.37-2.29.57-3.43a9.12,9.12,0,0,0-.3-5.63,1.26,1.26,0,0,1,.65-1.89,1.247,1.247,0,0,1,1.85.74,25,25,0,0,1,.42,5.17c-.06,2.15-.58,4.29-.54,6.43a3.66,3.66,0,0,0,5.55,3.33,3.16,3.16,0,0,0,1.1-1.05,1.63,1.63,0,0,0-1.11-2.58c-.58-.13-1.19-.1-1.78-.18-1.21-.18-1.76-1.18-1.08-2.18a6.87,6.87,0,0,1,4.65-2.66.66.66,0,0,1,.57.27.67.67,0,0,1-.17.61c-.4.32-.86.57-1.29.86Z" transform="translate(-183.34 -283.78)" fill="#ff4600"/>
      <path id="Path_28" data-name="Path 28" d="M193,298.1c0,2.95-2.34,4.67-5.47,4.12a4.81,4.81,0,0,1-4.06-3.44,4.14,4.14,0,0,1,1.58-4.24c1.82-1.27,3.81-1.73,5.85-.6a1.65,1.65,0,0,0,1.81,0c3-1.47,6.33-.61,7.67,1.9a4.55,4.55,0,0,1-2.22,6.24,3.243,3.243,0,0,1-1.56-.08,9.929,9.929,0,0,1,.53-1.2,10.3,10.3,0,0,1,.8-1,2.66,2.66,0,0,0,.07-3.33,3.25,3.25,0,0,0-3.58-.94A2.14,2.14,0,0,0,193,298.1Zm-2.27,1.3a17.518,17.518,0,0,1-2.27-1.37,1.18,1.18,0,0,1-.08-1.14,2,2,0,0,1,1.22-.37,2.941,2.941,0,0,1,.8.25,1.72,1.72,0,0,0-2.11-1.4,2.78,2.78,0,0,0-2.42,2.44,2.73,2.73,0,0,0,2.31,2.52C189.54,300.61,190.38,300.25,190.73,299.4Z" transform="translate(-183.34 -283.78)" fill="#ff4600"/>
      <path id="Path_29" data-name="Path 29" d="M291.93,291.15c-.31,1.49-2.07,1.36-2.78,2.49.7.23,1.37.4,2,.66,2.6,1.1,3.17,3.39,1.41,5.6-1.88,2.36-5.56,3.18-7.85,1.69a4.42,4.42,0,0,1-1.38-1.44,1.35,1.35,0,0,1,.9-1.89c.79-.18,1.44-.06,1.5,1,0,.22.32.52.56.63a3.8,3.8,0,0,0,4.05-1,1.72,1.72,0,0,0-1.07-3c-.54-.11-1.11-.07-1.66-.15a1.34,1.34,0,0,1-1.2-1.9C287,292.42,290.22,290.74,291.93,291.15Z" transform="translate(-183.34 -283.78)" fill="#ff4600"/>
      <path id="Path_30" data-name="Path 30" d="M208.36,293.36a21.819,21.819,0,0,1,3.21,1.14,3.49,3.49,0,0,1,1.78,4,4.81,4.81,0,0,1-3,3.73c-.25.1-.64-.12-1-.19a4.589,4.589,0,0,1,.28-1.06,17,17,0,0,0,1.42-2.42,1.77,1.77,0,0,0-1.27-2.45A5.86,5.86,0,0,0,207,296c-1.69.4-2.1,2.11-1,3.45a2.32,2.32,0,0,1,.63,1.22,1.79,1.79,0,0,1-.54,1.39,1.74,1.74,0,0,1-1.5-.13,4.44,4.44,0,0,1-.74-6.61,6.94,6.94,0,0,1,4.51-1.96Z" transform="translate(-183.34 -283.78)" fill="#ff4600"/>
      <path id="Path_31" data-name="Path 31" d="M247.53,293.57a5.826,5.826,0,0,1,1.35.09,4.47,4.47,0,0,1,3.84,3.31,4.91,4.91,0,0,1-2.54,5,3.73,3.73,0,0,1-1.43.1c.15-.43.28-.88.45-1.3.06-.14.23-.22.33-.34,1.08-1.25,1.29-2.95.48-3.83a3.88,3.88,0,0,0-4.36-.33,2,2,0,0,0-.42,3c.23.27.62.55.64.84a3.07,3.07,0,0,1-.26,1.84c-.47.62-1.21.35-1.81-.12a4.56,4.56,0,0,1-1.58-4.83,5,5,0,0,1,4.39-3.39,7,7,0,0,1,.92-.04Z" transform="translate(-183.34 -283.78)" fill="#ff4600"/>
    </g>
  </g>
</svg>
