<svg xmlns="http://www.w3.org/2000/svg" viewBox="0 0 436.29 177.6"><defs>
<style>
.cls-1{
    width: 400px;
    fill:rgba(0, 0, 0, 0.342);
    stroke:rgba(255, 255, 255, 0.5);
    stroke-miterlimit:5;
    stroke-width:0.2px;
    }
</style>
<style>
     .cls-1:hover{
        fill:#FF4600;
        transition:0.3s ease-in-out
    }
</style>
      </defs><g id="Layer_2" data-name="Layer 2"><g id="Layer_2-2" data-name="Layer 2"><path class="cls-1" d="M140.38,26.65s-4.42,1.53-5.62,1.19A3.65,3.65,0,0,1,132.89,26a8.21,8.21,0,0,1-4.25,0,20,20,0,0,1-3.24-1.7s.51,1.58-3.4,1.81a22.08,22.08,0,0,1-7.15-.79,22.48,22.48,0,0,1-10.21-1A45.46,45.46,0,0,1,94.42,19V16.78a17.12,17.12,0,0,1-6.46,0,90.57,90.57,0,0,0-9.71-1.53c-4.76-.51-4.76.51-7.32-.85s0,.34-2.55-1.37-2.21-.68-6-2.38-3.4-1-5.61-2.55.85-.51-2.22-1.53S49,3,45.57,2.65a9.6,9.6,0,0,0-5.44.85s-7.83-.17-9.71-.17S17.83,1.46,17.83,1.46s-8.34-2.72-9.7,0-8.52,9-7.83,9.36-1,4.09,4.93,4.77S12,17,15.44,18.82,19.7,26,19.7,26s1,6.13,4.43,4.6,8.85-.68,11.06,1.19S40,35.16,41.66,35s6.47.2,7,0,10.21,1.85,12.76,4.75,6.47,1.19,7.49,2,3.92,11.75,5.62,12.26,3.4,1.53,5.45,1.53S90,56.1,91.19,58s2.55.68,5.28,6.3,4.59,16.68,5.1,17.53,7.49-1.22,7.49-1.22-1.53-2.18,2.55-3.72,9-3.57,9.54-4.25a13.11,13.11,0,0,1,3.4-3.58c1.53-.85,2.55-.68,3.41-2s2.55-1.87.17-3.74l-2.39-1.87h0c1.19-.69,2-1,2.22-2.39s-1.71-1.7-2.56-2.89-1.53-3.07-.51-4.26,3.75-1.19,3.75-1.87-3.24-1.7-3.24-1.7-1.53-2.21-.17-3.41-2.89-1-1.7-2.21a6.49,6.49,0,0,1,3.06-1.52,35.82,35.82,0,0,1,5.62-2.22c2.55-.68,3.23,1,4.6-2s3.91-5.44,3.57-6.29S140.38,26.65,140.38,26.65Z"/></g><g id="Layer_3" data-name="Layer 3"><path class="cls-1" d="M140.41,26A10.71,10.71,0,0,1,145,26a19.1,19.1,0,0,0,6.29-.23s3.75-2.83,6.64-1.64,5.62,2.72,7.83,3.57a23.84,23.84,0,0,0,5.62,1.54c.85,0,6.3-1,9.53-.86A21.26,21.26,0,0,1,188,30.57l7.49,3.23s-.68,1.19.85,3.23S203.19,42,203.19,42s4.59,1,2.72,1.87-3.4-.17-3.91,1.88.17,3.4-3.41,3.23-11.23-.85-11.23-.85-2.38-2.38-3.75-1.53-1.7,2.75-4.76,2.39-2.25-1-5.46-1.54-8.5-1.87-8.5-1.87A23.91,23.91,0,0,1,162,47.93c-1.7,1.19-6.13-.06-6.13,1.08s-.17,6.24,3.06,6.58A17.72,17.72,0,0,1,166.76,58c1.71,1.19.85,4.09,1.2,6.3S171,69.72,171,69.72s2.72,1.87,0,1.87a10.35,10.35,0,0,0-6.13,2.55A67.76,67.76,0,0,0,160.3,82c-.86,2.17-2.73,3.2-3.75,4a59,59,0,0,0-4.42,5.78s-2,1-1.71,2a27.57,27.57,0,0,1,.34,4.74,2.38,2.38,0,0,1-2.55,3.26H141.4l-6.64-2.39H125.4a27.91,27.91,0,0,0-6.3,1.36l-2.89,1v1.53H114l-2.56,1.87s-2.38-1.36-2.38-2.89V98.63s-1.36-.49-1.36-2.87V91.67l-1.7-5.1-4.43-4.77,7.49-1.22s-4.46-1.45,11.47-7.52c0,0,1.47-3.51,7.43-6.07s.17-3.74.17-3.74l-2.39-1.87L128,59l-.75-1.39-2.48-2.72s-2.56-2.36,3.91-4.91c0,0-1.71-1.7-3.24-1.7s-.17-3.41-.17-3.41-4.25-1.51,1.36-3.73a33.53,33.53,0,0,1,8.84-2.45l5-6.92Z"/></g><g id="Layer_4" data-name="Layer 4"><path class="cls-1" d="M205.91,43.84s1.87,2.73,4.6,2.73,4.08,0,5.27.85A11.58,11.58,0,0,0,221.91,49c2.56,0,5.45-1.36,8.34,0s8.85,5.28,11.41,6.47,4.25,2,5.27,5.44c.9,3,1.79,6.09-.39,6.71a3.61,3.61,0,0,1-1.14.1c-3.57-.17,5.11,1.71,5.11,1.71l5.45,2a18.51,18.51,0,0,1-3.58,3.06c-1.19.51-2.21.85-2.21,1.87s-.68,3.75-2.9,2.39-3.06-2-5.1-1.19-4.43,1.56-4.43,1.56-2.89,1.09-3.74,1.47-3.41-1.33-5.11-1-3.23,1.29-3.91,1-10.56-3.2-12.43-1.33a55.71,55.71,0,0,0-3.74,4.25h-7.66s-3.58.68-5.28,0A24.39,24.39,0,0,1,192.81,82s2,.06,1.53-1.43-6.47-4.74-8-4.74a2.63,2.63,0,0,0-2.21,1.54l-2.9-1.88-2.38-.17-2,2L173.4,77l-1.28-5.68s-6.29-8-4.38-11.73-10-4.43-10-4.43S154,49.53,155.87,49a33,33,0,0,1,5.32-.73l4.34-2.57,9.92,2.22a7.34,7.34,0,0,0,8.16-1.36l3.75,1.53,12.4.84s1.05.52,2.24-3.22S198.93,45.89,205.91,43.84Z"/></g><g id="Layer_5" data-name="Layer 5"><path class="cls-1" d="M146.68,101.89s-2.55,1.53-.85,3.4S152,107.5,152,107.5s4.08-1,4.76-1,2.72,3.75,2.72,3.75,4.43,3.06,5.79,3.74,8.34-1.87,8.85,1.36l.51,3.24-1.53,3.74s-1.7,2.38-2.89,2.38-6.3-.17-7.66,0-1.87-2.89-4.09-3.06-7.66,2-7.66,2l-6.8,1-1-2.39s-3.06-.85-3.4.34-2,2-2,2l-3.24-3.07-3.4-.51L128,117.89s-4.6-.34-5.79-.34-5.28,1.87-5.28,1.87-1.36-7.66-1.36-8.51-4.09-5.62-4.09-5.62l3.41-1.87h1.36v-1.53s7-2.39,11.4-2.39h9S137.49,102.23,146.68,101.89Z"/></g><g id="Layer_6" data-name="Layer 6"><path class="cls-1" d="M237.74,79.11s1.7,3.27,4.6,2.9a5.24,5.24,0,0,1,4.59,1.8l-2.55,3.27s-2.89,3.06-3.74,3.06-4.77,3.41-4.77,3.41.85,4.89.85,5.08a26.61,26.61,0,0,1-4.08,4.45c-1.37,1-5.28-1.19-4.94,2.21s1,5.28,0,5.79-1,.17-1.51,1-1.36.34-1.36,2,.34,2.89-1.2,3.07-5.44,2.38-8.85,3.23a44.87,44.87,0,0,1-7.66,1,31.3,31.3,0,0,1-9.36,1.36c-5.44,0-2.89,1.72-3.91,1.88s-3.92-1.37-4.6-1.37-4.59-.34-4.59-.34-.17,2.06-4.09,1.71a21.08,21.08,0,0,1-7.49-2.39l1.53-3.74a3.81,3.81,0,0,0-.51-3.24,5.72,5.72,0,0,0-3.23-1.67l-4.59.43-6.82-3.86-2.72-3.75s-8.51,2.6-9.87-.4-3.86-3.46-.17-4.19,4.22-2.39,4.22-2.39-1.07-4.32-.48-5.61A16.18,16.18,0,0,1,153,90.64s5.64-6,6.23-6.83,5.69-9.67,5.69-9.67,6.8-4.7,7.23-2.79L173.4,77l3.41.35s1.45-2.62,3.39-1.95a21.19,21.19,0,0,1,3.93,1.95,2.5,2.5,0,0,1,3.32-1.28c2.26,1,7.23,3.32,6.89,4.48S190.25,82,190.25,82s6.81,2.1,8.85,1.8,9.71-.31,9.71-.31.66-3.64,3.74-4.25S225,80.58,225,80.58s7.32-.89,9,0S237.74,79.11,237.74,79.11Z"/></g><g id="Layer_7" data-name="Layer 7"><path class="cls-1" d="M255.11,72.28s5.27-2,7-2.56,7-1.37,7-1.37L275.53,67s-2.21,1.88,0,2.64a38.29,38.29,0,0,0,4.94,1.26L283,74.48s-2.55,1-2.72,2.73-.34,3.3,1,4.8a6.17,6.17,0,0,0,2.38,1.8s2,1.91,0,2.76,0,3.23,0,3.23,2,1.7.91,2.72a56.68,56.68,0,0,1-5,4.26c-.85.51-4.08,2.21-2.72,2.72s2.38,1.19,1.53,3.24-1.53,5.61-.51,5.61,4.6-.17,5.28,0,4.59-1.19,6-.85,3.57-1.33,3.74.87-.68,5.94,1.36,7.3,2.22,1.71,2.39,3.07-3.58,3.06-3.58,3.06l-1.36,6.64s-4.09,2-6.47.68-3.74-2.72-4.93-1.36-4.42,1.19-4.42,1.19l-6-.85s-1.53,1.79-2.72,1.49-3.41-1-3.41-1l-5.44,1.7s-4.43,0-4.6-2-2.38-2-2.38-2H241.15a15.65,15.65,0,0,1-1.54-2.73c-.34-1-3.06-1.87-3.06-1.87l-2.72-3.57-5.11-2.22-3.89-.68s-.75-2.55,2.85-4.08c0,0,.37-7.69.54-7.49a29.36,29.36,0,0,0,4.37-.21l4.13-4.75-.85-5.08s3.61-3.09,5-3.46,6.06-6.28,6.06-6.28-1.33-2-6.68-2.17l-2.51-2.53s.5-.14,1.28-.41,4-2,5.35-1.46,3.59,2.22,4.27,1.85.77-3,3.32-4.43A9.62,9.62,0,0,0,255.11,72.28Z"/></g><g id="Layer_8" data-name="Layer 8"><path class="cls-1" d="M275.53,67s4.17-3.44,6.08-4.08a18.9,18.9,0,0,1,4.73-1.15c1,0,5.1.38,5.62,0s2-2.3,2.93-2.3a60,60,0,0,1,7.15,0c4.21.26,5,1.66,5.49,2.55s1.91,3.71,3.45,3.71,2.8-.25,3.83-2.55-.26-3.71,2.93-4.35,3.32.51,6.64,1.79,6.26.13,8.94.89,5.36,4.34,6.38,5.49,4,3.9,4,3.9-3.58,4.66-2.3,8.23c0,0-3.83-.26-3.45,2.3a7,7,0,0,0,2,4.08c.63.9-1.41.9-2.43,1.66s-3.19,0-4.34,2.43-2.68,5-2.68,5.62-.38,5-.38,5.61-4.09.77-3.32,2.17,4.08,2,3.44,3.07-.25,3.19.39,3.32-4.34-1.66-1.54,2.55,9.07,3.45,9.07,4.34-2,2.17-5,1.79-6.64-2-6,.07,2.81,3.37,2.42,3.5-9.57-1-10.59,0-3.06.64-1.53,1.79a2,2,0,0,1-.26,3.32c-.89.51-.25,2.29.38,2.68s6.13,2.17,7.28,2.68,1.79,2.55.64,2.93-5.62,1-5.62,1-6.38-.77-6.76-1-3.56-1.65-3.56-1.65-2.32-3.71-4.1-2.43-5,2-5.62,1.4a17.34,17.34,0,0,1-1.79-3.19l-6.38-.72,1.36-6.64s6.91-1.8.51-6.81l-.88-7.36s-2.23.15-3,.12-3.83.57-4.66.7-3.89-.17-4.43-.16a13.24,13.24,0,0,1-2.87,0,4.43,4.43,0,0,1,0-3.54c.73-1.4,1.64-3.42,1.11-3.93s-1.71-.78-2-1.35-.54-1.07,0-1.42,5.76-3.76,5.88-3.86,3.28-.9,1.81-3.45-2.7-2.41-1.54-3.68,1.86-1.71,1.7-2.42-2.39-1.64-2.89-2.15-2.48-2.75-1.42-4.93,1.38-2.81,2.06-2.84.78-.29.78-.29l-2.77-3.57S271.52,70,275.53,67Z"/></g><g id="Layer_9" data-name="Layer 9"><path class="cls-1" d="M343.66,71.59a18.79,18.79,0,0,0,3.06,1.27c1.66.52,5.11-.38,6.38-.63a42.42,42.42,0,0,1,5.75,0,4.59,4.59,0,0,1,4,1.91c.89,1.53,2.55,1.53,4.46,1.66s3.58-.13,4.86,1.15,2.55,1.89,1.14,3.63a8.68,8.68,0,0,0-2,5.82c.13,1.91.38,4.59.38,4.59s-6.25-.51-6.51,0-1.27,4.85-.38,5.75,7.53,4.08,8,4.34,6.77.76,7.92,1,1.91.25,2.68,2.42,1.53,3.07,2.68,2.81a32.43,32.43,0,0,1,5.11,0s-.13,1.36,1,1.48,1.53.13,3.7.39a7.09,7.09,0,0,0,2.81,0s.25,1.91,1,1.91a22.19,22.19,0,0,1,2.94,0c.76.13-.26-.25,2.17,1.15s4.21,2,5.74,2,4.6,1.41,4.6,2.05.89-.39,0,2.17-.26,4.46-2.81,5.36a6.73,6.73,0,0,0-3.45,2.3s-3.57-.13-5.36,1-3.19,7.27-2,8.3a23.28,23.28,0,0,0,5.36,2.93c.38,0,.89.26,2.81,3.45s8.81,7.53,8.81,7.53l11.23,5.62,6.26,5.23s.51,3.45-1,4.47-1.66,4.47-2,8-3.06,3.58-3.19,2.43a16.6,16.6,0,0,0-.51-2.43s1.15-2.42-1.41.39a17.8,17.8,0,0,1-5.61,4.08l-1.79-2.55-6.13.25L406,169.25a50,50,0,0,0-7.41-.64c-3.7,0-5.28,1.53-8.7.51s-6.87-2.81-7.77-2.94-5.74-.25-7.66-1.78-3.19-2.05-3.32-2.43-1.91-1.53-.89-2.94a7.82,7.82,0,0,1,2.68-2.17s.38.39-3.45-.76-5.23.51-6.51-.64-.12-2.43-1.27-2.94a13.43,13.43,0,0,0-4.09-.38l-3.06-2.3-2,1.92-7.54-3.58.51-3.44-5.74-2.17s-3.83-2.17-3.19-3.07a20.26,20.26,0,0,0,1.53-3.44s-2.57-1.92-1.6-2.94a6.74,6.74,0,0,0,1.34-3.45c0-.38-.83-1.78-1.56-1.91a15.22,15.22,0,0,0-3.16.38s-2.42-1.66-2.3-2.81-1.15-3.7-1.15-3.7-7-6.77,3.58-3.57c0,0,5.74.38,5-1.79s-3.89,1.17-7.95-3,.42-3.84.42-3.84l-.4-3.87s-5.52-2.21-3.43-3.15,3.32-1.54,3.32-1.54.31-7.42,2.53-10.16a10.91,10.91,0,0,1,4.87-3.5L340,85.5s-4.86-7.4,1.4-6.38C341.36,79.12,340.72,72.86,343.66,71.59Z"/></g><g id="Layer_10" data-name="Layer 10"><path class="cls-1" d="M344.93,148.18l.51-3.44-8.93-5.24,1.53-3.44-1.79-2.17s.62-2.12.9-3.58,1.91-2.07-4.54-2.5c0,0-2.87-3.75-3-6.18s-12.67,1.14-12.67,1.14a1.56,1.56,0,0,1,1.3,1.67,4.5,4.5,0,0,1-1,2.3s-1.51,2.08,2,3.32,6.31,2.54,6.31,2.54,1.65,1.18.54,1.88-6.68,1.58-6.68,1.58-5.82-1.66-6.74-1.28-4.26-2.91-4.26-2.91l-1.8-1.15-6.73,1.63-1.79-3.19-6.38-.72s-4.38,1.61-5.69,1-4-2.74-4.85-2.21a16.36,16.36,0,0,1-3.31,1.61c-.52.07-7.94-.73-7.94-.73s-1.19,1.91-2.72,1.49-3.41-1-3.41-1l-5.44,1.7-4-1-.74-1.73-1.32,2.76-2.42,1.15a13.74,13.74,0,0,1-2.17.77c-.39,0-2.56-2-3.32-1.15a11.64,11.64,0,0,0-1.41,3.4l-.25,4.77L240,143.72l4.08-.26s6.26.26,7.28.51,1.15,1.41,1.15,1.92a3.07,3.07,0,0,0,1.53,1.78c.38,0,.89,3.19.13,5.24s2.55,2.93,2.55,2.93a2.36,2.36,0,0,1,.89,2.43c-.38,1.53-2.29,4.34-2,4.72s2.94,5,2.94,5-1,1.15-.51,2,2.86,1.54,2.7,1.15,1-2.68,2.79-3.06,7.66.13,7.66.13l1.4-.77s-.89-2.43.64-2.43,2.42-.25,2.81,0,1.53,1.92,2.42,1.92,3.83.26,3.83.26.51-1.79,1.28-1.79,1.15,1.27,2.43,1.66,4.59,1.78,5,1.66l3.71-1.15s1.45-1.15,2-.38,2.46.89,2.46.89l1.92-1.41s1.28-1.78,2.55-1,2.3,1.54,2.3,1.54l6.38-.52s2.56.39,3.45.39a5.56,5.56,0,0,0,2.17-.77s-3.7-.76-4.09-1.53-1.27-2.43-1.27-2.43,1.15-1.91,1.79-1.14a7,7,0,0,0,4.46,2c1.79,0,5.75-1.66,5.75-1.66s.08-2,1.83-1.66,3.27,1.4,4.17-.77,6.51-6.64,7.66-6.76,1.27,1,2.68-.39,2.55-3.57,2.81-3.57A11,11,0,0,0,344.93,148.18Z"/></g><g id="Layer_11" data-name="Layer 11"><path class="cls-1" d="M258,170l.51-2-2.94-5s2.75-3.89,1.92-6.19a3,3,0,0,0-2.94-2.16s-1.26-1.38-.7-2,.45-4.55.45-4.55L253,146.86l-.8-2.18-.88-.71s-11-.38-11.36-.25,2.49-4.16,2.49-4.16.57-8,1.85-8.48a2.9,2.9,0,0,1,2.59.32,7.28,7.28,0,0,0,2.9.06l2.42-1.15,1.18-2.47-.85-1.31-11.43-.3-1.54-2.73-3.06-1.87-2.72-3.57-5.11-2.22-3.44-.6-.51,1.35-1.43.66s-10.13,5.08-15.82,4.19c0,0-9.71,2.23-12.33,1.6s-.71,1.71-1.36,1.66-4.27-1.31-4.27-1.31l-4.92-.4s.32,4.41-11.58-.68c0,0-1.93,2.4-2.89,2.38l-5-.07s-1.66,1.16-.64,1.67,1.28.38,1.41.83a6.71,6.71,0,0,1-.9,2.68c-.25.32-1.24,1.92-.84,2.3s2.25,2.49,2.25,2.49,2.17,2.17,2.68,2.55.7,2.94.7,3.26.7.32.7.32l4-.71,2.41.07a10.13,10.13,0,0,0,3.19.7c1.47,0,3-.38,3.64-.38s2.49.7,2.17.95-1.66,1.79-2,2.05a5.43,5.43,0,0,0-1.15,1.78c-.07.26,1.53,3.45,2.29,3.45s1.47-.7,2.17-1.28a5.19,5.19,0,0,1,2.24-.7,22.29,22.29,0,0,1,4,3.83c1.4,1.92,2.81,3.26,3.06,4s2.37,1.92,3.13,1.85,2.94-.51,3.58,1.15,1.53,2.24,2,2.17a28,28,0,0,1,3.19.39s-2.17.7-2.62.89-1.53,3.06-1.53,3.06,3.13.32,3.58.32-.32-.89,1.72,1.41,1.28,3.38,2.23,3.44,5.05-2.42,7.15-2.23,5.62,1,6.26,3.06,1.59,2.43,1.59,2.43a20.89,20.89,0,0,0,3.77-1.16c.76-.5,2-.31,3.45.58s2,.83,3.57.58,1.6-.83,2.68-.19,1.28,1.66,3.26,1.4a7.59,7.59,0,0,0,3.76-1.72c.51-.38.9-.77,3.7-1.15S258,170,258,170Z"/></g><g id="Layer_12" data-name="Layer 12"><path class="cls-1" d="M116.89,119.42a42.42,42.42,0,0,0-.68,5.28c.17.42-.68,3.48-1.7,5a39.65,39.65,0,0,1-4.6,4.93c-.25.17-3.15,1-4,1.79s-3.83,4.94-3.91,5.62a11.66,11.66,0,0,0,.59,2.8s1.54-1.61,2.47,0,1.19,2.64,2.3,2.9,3.06-.77,3.66-.85a14.74,14.74,0,0,1,2.89.51,20.78,20.78,0,0,1,4.43,2.47c1.36,1.19.59,2,2,1.53s4.76-4,5.19-4.26,1.53-3.77,3.23-2.69a16.81,16.81,0,0,0,2.89,1.5,5,5,0,0,0,3.07.77,14.24,14.24,0,0,0,3.23-1.28s2.39.17,2.9.17a15,15,0,0,1,3,.34,7.28,7.28,0,0,0,2,1c.43,0,4.17-.25,4.17-.25s1.36,1.53,1.79,1.53,4.17.17,4.17.17.6-.6,2.89,1.19,3.32,1.36,3.83,1.19,2,.6,2.3-1a4.8,4.8,0,0,1,1.87-2.81,18.72,18.72,0,0,0,2.56-4.42c.08-.6.53-2.17.53-2.17l-.7-4-4.93-4.34s1.94-5.14,1.43-5.34-.46-2.14-.46-2.14l-3.25-.06s-2.16-3-3.52-2.93-12.51,3-14,3-1.23-2.39-2.34-2.5a6.33,6.33,0,0,0-2.55.52l-2,2-3.24-3.07-3.4-.51S129,118,128,117.89s-5.79-.34-5.79-.34Z"/></g></g></svg>